<?xml version="1.0" encoding="utf-8" standalone="no"?>
<!DOCTYPE svg PUBLIC "-//W3C//DTD SVG 1.1//EN"
  "http://www.w3.org/Graphics/SVG/1.1/DTD/svg11.dtd">
<svg xmlns:xlink="http://www.w3.org/1999/xlink" width="814.3875pt" height="216.36pt" viewBox="0 0 814.3875 216.36" xmlns="http://www.w3.org/2000/svg" version="1.1">
 <metadata>
  <rdf:RDF xmlns:dc="http://purl.org/dc/elements/1.1/" xmlns:cc="http://creativecommons.org/ns#" xmlns:rdf="http://www.w3.org/1999/02/22-rdf-syntax-ns#">
   <cc:Work>
    <dc:type rdf:resource="http://purl.org/dc/dcmitype/StillImage"/>
    <dc:date>2025-03-14T14:51:13.106620</dc:date>
    <dc:format>image/svg+xml</dc:format>
    <dc:creator>
     <cc:Agent>
      <dc:title>Matplotlib v3.9.3, https://matplotlib.org/</dc:title>
     </cc:Agent>
    </dc:creator>
   </cc:Work>
  </rdf:RDF>
 </metadata>
 <defs>
  <style type="text/css">*{stroke-linejoin: round; stroke-linecap: butt}</style>
 </defs>
 <g id="figure_1">
  <g id="patch_1">
   <path d="M 0 216.36 
L 814.3875 216.36 
L 814.3875 0 
L 0 0 
z
" style="fill: #ffffff"/>
  </g>
  <g id="axes_1">
   <g id="patch_2">
    <path d="M 335.88 130.68 
L 336.051352 130.678641 
L 336.222662 130.674563 
L 336.393885 130.667767 
L 336.564978 130.658256 
L 336.7359 130.646032 
L 336.906605 130.631097 
L 337.077053 130.613455 
L 337.247198 130.593112 
L 337.417 130.570072 
L 337.586415 130.54434 
L 337.7554 130.515924 
L 337.923913 130.48483 
L 338.091912 130.451066 
L 338.259354 130.414642 
L 338.426197 130.375565 
L 338.592398 130.333846 
L 338.757917 130.289495 
L 338.922712 130.242524 
L 339.08674 130.192944 
L 339.249961 130.140768 
L 339.412334 130.086009 
L 339.573818 130.02868 
L 339.734371 129.968797 
L 339.893955 129.906374 
L 340.052527 129.841426 
L 340.21005 129.773971 
L 340.366482 129.704026 
L 340.521785 129.631607 
L 340.675919 129.556733 
L 340.828846 129.479423 
L 340.980528 129.399696 
L 341.130925 129.317573 
L 341.28 129.233074 
L 341.427716 129.146221 
L 341.574035 129.057035 
L 341.718921 128.965538 
L 341.862337 128.871754 
L 342.004247 128.775707 
L 342.144615 128.67742 
L 342.283406 128.576919 
L 342.420585 128.474228 
L 342.556117 128.369373 
L 342.689969 128.262382 
L 342.822106 128.15328 
L 342.952496 128.042095 
L 343.081105 127.928856 
L 343.207902 127.81359 
L 343.332853 127.696328 
L 343.455929 127.577097 
L 343.577097 127.455929 
L 343.696328 127.332853 
L 343.81359 127.207902 
L 343.928856 127.081105 
L 344.042095 126.952496 
L 344.15328 126.822106 
L 344.262382 126.689969 
L 344.369373 126.556117 
L 344.474228 126.420585 
L 344.576919 126.283406 
L 344.67742 126.144615 
L 344.775707 126.004247 
L 344.871754 125.862337 
L 344.965538 125.718921 
L 345.057035 125.574035 
L 345.146221 125.427716 
L 345.233074 125.28 
L 345.317573 125.130925 
L 345.399696 124.980528 
L 345.479423 124.828846 
L 345.556733 124.675919 
L 345.631607 124.521785 
L 345.704026 124.366482 
L 345.773971 124.21005 
L 345.841426 124.052527 
L 345.906374 123.893955 
L 345.968797 123.734371 
L 346.02868 123.573818 
L 346.086009 123.412334 
L 346.140768 123.249961 
L 346.192944 123.08674 
L 346.242524 122.922712 
L 346.289495 122.757917 
L 346.333846 122.592398 
L 346.375565 122.426197 
L 346.414642 122.259354 
L 346.451066 122.091912 
L 346.48483 121.923913 
L 346.515924 121.7554 
L 346.54434 121.586415 
L 346.570072 121.417 
L 346.593112 121.247198 
L 346.613455 121.077053 
L 346.631097 120.906605 
L 346.646032 120.7359 
L 346.658256 120.564978 
L 346.667767 120.393885 
L 346.674563 120.222662 
L 346.678641 120.051352 
L 346.68 119.88 
L 346.68 15.48 
L 346.678641 15.308648 
L 346.674563 15.137338 
L 346.667767 14.966115 
L 346.658256 14.795022 
L 346.646032 14.6241 
L 346.631097 14.453395 
L 346.613455 14.282947 
L 346.593112 14.112802 
L 346.570072 13.943 
L 346.54434 13.773585 
L 346.515924 13.6046 
L 346.48483 13.436087 
L 346.451066 13.268088 
L 346.414642 13.100646 
L 346.375565 12.933803 
L 346.333846 12.767602 
L 346.289495 12.602083 
L 346.242524 12.437288 
L 346.192944 12.27326 
L 346.140768 12.110039 
L 346.086009 11.947666 
L 346.02868 11.786182 
L 345.968797 11.625629 
L 345.906374 11.466045 
L 345.841426 11.307473 
L 345.773971 11.14995 
L 345.704026 10.993518 
L 345.631607 10.838215 
L 345.556733 10.684081 
L 345.479423 10.531154 
L 345.399696 10.379472 
L 345.317573 10.229075 
L 345.233074 10.08 
L 345.146221 9.932284 
L 345.057035 9.785965 
L 344.965538 9.641079 
L 344.871754 9.497663 
L 344.775707 9.355753 
L 344.67742 9.215385 
L 344.576919 9.076594 
L 344.474228 8.939415 
L 344.369373 8.803883 
L 344.262382 8.670031 
L 344.15328 8.537894 
L 344.042095 8.407504 
L 343.928856 8.278895 
L 343.81359 8.152098 
L 343.696328 8.027147 
L 343.577097 7.904071 
L 343.455929 7.782903 
L 343.332853 7.663672 
L 343.207902 7.54641 
L 343.081105 7.431144 
L 342.952496 7.317905 
L 342.822106 7.20672 
L 342.689969 7.097618 
L 342.556117 6.990627 
L 342.420585 6.885772 
L 342.283406 6.783081 
L 342.144615 6.68258 
L 342.004247 6.584293 
L 341.862337 6.488246 
L 341.718921 6.394462 
L 341.574035 6.302965 
L 341.427716 6.213779 
L 341.28 6.126926 
L 341.130925 6.042427 
L 340.980528 5.960304 
L 340.828846 5.880577 
L 340.675919 5.803267 
L 340.521785 5.728393 
L 340.366482 5.655974 
L 340.21005 5.586029 
L 340.052527 5.518574 
L 339.893955 5.453626 
L 339.734371 5.391203 
L 339.573818 5.33132 
L 339.412334 5.273991 
L 339.249961 5.219232 
L 339.08674 5.167056 
L 338.922712 5.117476 
L 338.757917 5.070505 
L 338.592398 5.026154 
L 338.426197 4.984435 
L 338.259354 4.945358 
L 338.091912 4.908934 
L 337.923913 4.87517 
L 337.7554 4.844076 
L 337.586415 4.81566 
L 337.417 4.789928 
L 337.247198 4.766888 
L 337.077053 4.746545 
L 336.906605 4.728903 
L 336.7359 4.713968 
L 336.564978 4.701744 
L 336.393885 4.692233 
L 336.222662 4.685437 
L 336.051352 4.681359 
L 335.88 4.68 
L 15.48 4.68 
L 15.308648 4.681359 
L 15.137338 4.685437 
L 14.966115 4.692233 
L 14.795022 4.701744 
L 14.6241 4.713968 
L 14.453395 4.728903 
L 14.282947 4.746545 
L 14.112802 4.766888 
L 13.943 4.789928 
L 13.773585 4.81566 
L 13.6046 4.844076 
L 13.436087 4.87517 
L 13.268088 4.908934 
L 13.100646 4.945358 
L 12.933803 4.984435 
L 12.767602 5.026154 
L 12.602083 5.070505 
L 12.437288 5.117476 
L 12.27326 5.167056 
L 12.110039 5.219232 
L 11.947666 5.273991 
L 11.786182 5.33132 
L 11.625629 5.391203 
L 11.466045 5.453626 
L 11.307473 5.518574 
L 11.14995 5.586029 
L 10.993518 5.655974 
L 10.838215 5.728393 
L 10.684081 5.803267 
L 10.531154 5.880577 
L 10.379472 5.960304 
L 10.229075 6.042427 
L 10.08 6.126926 
L 9.932284 6.213779 
L 9.785965 6.302965 
L 9.641079 6.394462 
L 9.497663 6.488246 
L 9.355753 6.584293 
L 9.215385 6.68258 
L 9.076594 6.783081 
L 8.939415 6.885772 
L 8.803883 6.990627 
L 8.670031 7.097618 
L 8.537894 7.20672 
L 8.407504 7.317905 
L 8.278895 7.431144 
L 8.152098 7.54641 
L 8.027147 7.663672 
L 7.904071 7.782903 
L 7.782903 7.904071 
L 7.663672 8.027147 
L 7.54641 8.152098 
L 7.431144 8.278895 
L 7.317905 8.407504 
L 7.20672 8.537894 
L 7.097618 8.670031 
L 6.990627 8.803883 
L 6.885772 8.939415 
L 6.783081 9.076594 
L 6.68258 9.215385 
L 6.584293 9.355753 
L 6.488246 9.497663 
L 6.394462 9.641079 
L 6.302965 9.785965 
L 6.213779 9.932284 
L 6.126926 10.08 
L 6.042427 10.229075 
L 5.960304 10.379472 
L 5.880577 10.531154 
L 5.803267 10.684081 
L 5.728393 10.838215 
L 5.655974 10.993518 
L 5.586029 11.14995 
L 5.518574 11.307473 
L 5.453626 11.466045 
L 5.391203 11.625629 
L 5.33132 11.786182 
L 5.273991 11.947666 
L 5.219232 12.110039 
L 5.167056 12.27326 
L 5.117476 12.437288 
L 5.070505 12.602083 
L 5.026154 12.767602 
L 4.984435 12.933803 
L 4.945358 13.100646 
L 4.908934 13.268088 
L 4.87517 13.436087 
L 4.844076 13.6046 
L 4.81566 13.773585 
L 4.789928 13.943 
L 4.766888 14.112802 
L 4.746545 14.282947 
L 4.728903 14.453395 
L 4.713968 14.6241 
L 4.701744 14.795022 
L 4.692233 14.966115 
L 4.685437 15.137338 
L 4.681359 15.308648 
L 4.68 15.48 
L 4.68 119.88 
L 4.681359 120.051352 
L 4.685437 120.222662 
L 4.692233 120.393885 
L 4.701744 120.564978 
L 4.713968 120.7359 
L 4.728903 120.906605 
L 4.746545 121.077053 
L 4.766888 121.247198 
L 4.789928 121.417 
L 4.81566 121.586415 
L 4.844076 121.7554 
L 4.87517 121.923913 
L 4.908934 122.091912 
L 4.945358 122.259354 
L 4.984435 122.426197 
L 5.026154 122.592398 
L 5.070505 122.757917 
L 5.117476 122.922712 
L 5.167056 123.08674 
L 5.219232 123.249961 
L 5.273991 123.412334 
L 5.33132 123.573818 
L 5.391203 123.734371 
L 5.453626 123.893955 
L 5.518574 124.052527 
L 5.586029 124.21005 
L 5.655974 124.366482 
L 5.728393 124.521785 
L 5.803267 124.675919 
L 5.880577 124.828846 
L 5.960304 124.980528 
L 6.042427 125.130925 
L 6.126926 125.28 
L 6.213779 125.427716 
L 6.302965 125.574035 
L 6.394462 125.718921 
L 6.488246 125.862337 
L 6.584293 126.004247 
L 6.68258 126.144615 
L 6.783081 126.283406 
L 6.885772 126.420585 
L 6.990627 126.556117 
L 7.097618 126.689969 
L 7.20672 126.822106 
L 7.317905 126.952496 
L 7.431144 127.081105 
L 7.54641 127.207902 
L 7.663672 127.332853 
L 7.782903 127.455929 
L 7.904071 127.577097 
L 8.027147 127.696328 
L 8.152098 127.81359 
L 8.278895 127.928856 
L 8.407504 128.042095 
L 8.537894 128.15328 
L 8.670031 128.262382 
L 8.803883 128.369373 
L 8.939415 128.474228 
L 9.076594 128.576919 
L 9.215385 128.67742 
L 9.355753 128.775707 
L 9.497663 128.871754 
L 9.641079 128.965538 
L 9.785965 129.057035 
L 9.932284 129.146221 
L 10.08 129.233074 
L 10.229075 129.317573 
L 10.379472 129.399696 
L 10.531154 129.479423 
L 10.684081 129.556733 
L 10.838215 129.631607 
L 10.993518 129.704026 
L 11.14995 129.773971 
L 11.307473 129.841426 
L 11.466045 129.906374 
L 11.625629 129.968797 
L 11.786182 130.02868 
L 11.947666 130.086009 
L 12.110039 130.140768 
L 12.27326 130.192944 
L 12.437288 130.242524 
L 12.602083 130.289495 
L 12.767602 130.333846 
L 12.933803 130.375565 
L 13.100646 130.414642 
L 13.268088 130.451066 
L 13.436087 130.48483 
L 13.6046 130.515924 
L 13.773585 130.54434 
L 13.943 130.570072 
L 14.112802 130.593112 
L 14.282947 130.613455 
L 14.453395 130.631097 
L 14.6241 130.646032 
L 14.795022 130.658256 
L 14.966115 130.667767 
L 15.137338 130.674563 
L 15.308648 130.678641 
L 15.48 130.68 
L 335.88 130.68 
z
" clip-path="url(#p73536b3c56)" style="fill: none; stroke: #000000; stroke-width: 2; stroke-linecap: round"/>
   </g>
   <g id="line2d_1">
    <path d="M 31.68 67.68 
L 31.68 31.68 
L 139.68 31.68 
L 139.68 103.68 
L 31.68 103.68 
L 31.68 67.68 
" clip-path="url(#p73536b3c56)" style="fill: none; stroke: #000000; stroke-width: 2; stroke-linecap: round"/>
   </g>
   <g id="line2d_2">
    <path d="M 31.68 67.68 
L 31.68 31.68 
L 139.68 31.68 
L 139.68 103.68 
L 31.68 103.68 
L 31.68 67.68 
" clip-path="url(#p73536b3c56)" style="fill: none; stroke: #000000; stroke-width: 2; stroke-linecap: round"/>
   </g>
   <g id="line2d_3">
    <path d="M 31.68 67.68 
L 31.68 31.68 
L 139.68 31.68 
L 139.68 103.68 
L 31.68 103.68 
L 31.68 67.68 
" clip-path="url(#p73536b3c56)" style="fill: none; stroke: #000000; stroke-width: 2; stroke-linecap: round"/>
   </g>
   <g id="line2d_4">
    <path d="M 31.68 67.68 
L 31.68 31.68 
L 139.68 31.68 
L 139.68 103.68 
L 31.68 103.68 
L 31.68 67.68 
" clip-path="url(#p73536b3c56)" style="fill: none; stroke: #000000; stroke-width: 2; stroke-linecap: round"/>
   </g>
   <g id="line2d_5">
    <path d="M 139.68 67.68 
L 175.68 67.68 
L 202.68 67.68 
" clip-path="url(#p73536b3c56)" style="fill: none; stroke: #000000; stroke-width: 2; stroke-linecap: round"/>
   </g>
   <g id="patch_3">
    <path d="M 202.68 64.98 
L 211.68 67.68 
L 202.68 70.38 
z
" clip-path="url(#p73536b3c56)"/>
   </g>
   <g id="line2d_6">
    <path d="M 139.68 67.68 
L 175.68 67.68 
L 202.68 67.68 
" clip-path="url(#p73536b3c56)" style="fill: none; stroke: #000000; stroke-width: 2; stroke-linecap: round"/>
   </g>
   <g id="patch_4">
    <path d="M 202.68 64.98 
L 211.68 67.68 
L 202.68 70.38 
z
" clip-path="url(#p73536b3c56)"/>
   </g>
   <g id="line2d_7">
    <path d="M 211.68 67.68 
L 211.68 31.68 
L 319.68 31.68 
L 319.68 103.68 
L 211.68 103.68 
L 211.68 67.68 
" clip-path="url(#p73536b3c56)" style="fill: none; stroke: #000000; stroke-width: 2; stroke-linecap: round"/>
   </g>
   <g id="line2d_8">
    <path d="M 211.68 67.68 
L 211.68 31.68 
L 319.68 31.68 
L 319.68 103.68 
L 211.68 103.68 
L 211.68 67.68 
" clip-path="url(#p73536b3c56)" style="fill: none; stroke: #000000; stroke-width: 2; stroke-linecap: round"/>
   </g>
   <g id="line2d_9">
    <path d="M 211.68 67.68 
L 211.68 31.68 
L 319.68 31.68 
L 319.68 103.68 
L 211.68 103.68 
L 211.68 67.68 
" clip-path="url(#p73536b3c56)" style="fill: none; stroke: #000000; stroke-width: 2; stroke-linecap: round"/>
   </g>
   <g id="line2d_10">
    <path d="M 211.68 67.68 
L 211.68 31.68 
L 319.68 31.68 
L 319.68 103.68 
L 211.68 103.68 
L 211.68 67.68 
" clip-path="url(#p73536b3c56)" style="fill: none; stroke: #000000; stroke-width: 2; stroke-linecap: round"/>
   </g>
   <g id="line2d_11">
    <path d="M 319.68 67.68 
L 409.68 67.68 
L 490.68 67.68 
" clip-path="url(#p73536b3c56)" style="fill: none; stroke: #000000; stroke-width: 2; stroke-linecap: round"/>
   </g>
   <g id="patch_5">
    <path d="M 490.68 64.98 
L 499.68 67.68 
L 490.68 70.38 
z
" clip-path="url(#p73536b3c56)"/>
   </g>
   <g id="line2d_12">
    <path d="M 499.68 67.68 
L 499.68 31.68 
L 611.7075 31.68 
L 611.7075 103.68 
L 499.68 103.68 
L 499.68 67.68 
" clip-path="url(#p73536b3c56)" style="fill: none; stroke: #000000; stroke-width: 2; stroke-linecap: round"/>
   </g>
   <g id="line2d_13">
    <path d="M 611.7075 67.68 
L 656.7075 67.68 
L 692.7075 67.68 
" clip-path="url(#p73536b3c56)" style="fill: none; stroke: #000000; stroke-width: 2; stroke-linecap: round"/>
   </g>
   <g id="patch_6">
    <path d="M 692.7075 64.98 
L 701.7075 67.68 
L 692.7075 70.38 
z
" clip-path="url(#p73536b3c56)"/>
   </g>
   <g id="line2d_14">
    <path d="M 701.7075 67.68 
L 701.7075 31.68 
L 809.7075 31.68 
L 809.7075 103.68 
L 701.7075 103.68 
L 701.7075 67.68 
" clip-path="url(#p73536b3c56)" style="fill: none; stroke: #000000; stroke-width: 2; stroke-linecap: round"/>
   </g>
   <g id="line2d_15">
    <path d="M 31.68 175.68 
L 31.68 139.68 
L 139.68 139.68 
L 139.68 211.68 
L 31.68 211.68 
L 31.68 175.68 
" clip-path="url(#p73536b3c56)" style="fill: none; stroke: #000000; stroke-width: 2; stroke-linecap: round"/>
   </g>
   <g id="line2d_16">
    <path d="M 139.68 175.68 
L 265.68 175.68 
L 265.68 112.68 
" clip-path="url(#p73536b3c56)" style="fill: none; stroke: #000000; stroke-width: 2; stroke-linecap: round"/>
   </g>
   <g id="patch_7">
    <path d="M 262.98 112.68 
L 265.68 103.68 
L 268.38 112.68 
z
" clip-path="url(#p73536b3c56)"/>
   </g>
   <g id="text_1">
    <!-- Texteditor -->
    <g transform="translate(50.921719 71.543125) scale(0.14 -0.14)">
     <defs>
      <path id="DejaVuSans-54" d="M -19 4666 
L 3928 4666 
L 3928 4134 
L 2272 4134 
L 2272 0 
L 1638 0 
L 1638 4134 
L -19 4134 
L -19 4666 
z
" transform="scale(0.015625)"/>
      <path id="DejaVuSans-65" d="M 3597 1894 
L 3597 1613 
L 953 1613 
Q 991 1019 1311 708 
Q 1631 397 2203 397 
Q 2534 397 2845 478 
Q 3156 559 3463 722 
L 3463 178 
Q 3153 47 2828 -22 
Q 2503 -91 2169 -91 
Q 1331 -91 842 396 
Q 353 884 353 1716 
Q 353 2575 817 3079 
Q 1281 3584 2069 3584 
Q 2775 3584 3186 3129 
Q 3597 2675 3597 1894 
z
M 3022 2063 
Q 3016 2534 2758 2815 
Q 2500 3097 2075 3097 
Q 1594 3097 1305 2825 
Q 1016 2553 972 2059 
L 3022 2063 
z
" transform="scale(0.015625)"/>
      <path id="DejaVuSans-78" d="M 3513 3500 
L 2247 1797 
L 3578 0 
L 2900 0 
L 1881 1375 
L 863 0 
L 184 0 
L 1544 1831 
L 300 3500 
L 978 3500 
L 1906 2253 
L 2834 3500 
L 3513 3500 
z
" transform="scale(0.015625)"/>
      <path id="DejaVuSans-74" d="M 1172 4494 
L 1172 3500 
L 2356 3500 
L 2356 3053 
L 1172 3053 
L 1172 1153 
Q 1172 725 1289 603 
Q 1406 481 1766 481 
L 2356 481 
L 2356 0 
L 1766 0 
Q 1100 0 847 248 
Q 594 497 594 1153 
L 594 3053 
L 172 3053 
L 172 3500 
L 594 3500 
L 594 4494 
L 1172 4494 
z
" transform="scale(0.015625)"/>
      <path id="DejaVuSans-64" d="M 2906 2969 
L 2906 4863 
L 3481 4863 
L 3481 0 
L 2906 0 
L 2906 525 
Q 2725 213 2448 61 
Q 2172 -91 1784 -91 
Q 1150 -91 751 415 
Q 353 922 353 1747 
Q 353 2572 751 3078 
Q 1150 3584 1784 3584 
Q 2172 3584 2448 3432 
Q 2725 3281 2906 2969 
z
M 947 1747 
Q 947 1113 1208 752 
Q 1469 391 1925 391 
Q 2381 391 2643 752 
Q 2906 1113 2906 1747 
Q 2906 2381 2643 2742 
Q 2381 3103 1925 3103 
Q 1469 3103 1208 2742 
Q 947 2381 947 1747 
z
" transform="scale(0.015625)"/>
      <path id="DejaVuSans-69" d="M 603 3500 
L 1178 3500 
L 1178 0 
L 603 0 
L 603 3500 
z
M 603 4863 
L 1178 4863 
L 1178 4134 
L 603 4134 
L 603 4863 
z
" transform="scale(0.015625)"/>
      <path id="DejaVuSans-6f" d="M 1959 3097 
Q 1497 3097 1228 2736 
Q 959 2375 959 1747 
Q 959 1119 1226 758 
Q 1494 397 1959 397 
Q 2419 397 2687 759 
Q 2956 1122 2956 1747 
Q 2956 2369 2687 2733 
Q 2419 3097 1959 3097 
z
M 1959 3584 
Q 2709 3584 3137 3096 
Q 3566 2609 3566 1747 
Q 3566 888 3137 398 
Q 2709 -91 1959 -91 
Q 1206 -91 779 398 
Q 353 888 353 1747 
Q 353 2609 779 3096 
Q 1206 3584 1959 3584 
z
" transform="scale(0.015625)"/>
      <path id="DejaVuSans-72" d="M 2631 2963 
Q 2534 3019 2420 3045 
Q 2306 3072 2169 3072 
Q 1681 3072 1420 2755 
Q 1159 2438 1159 1844 
L 1159 0 
L 581 0 
L 581 3500 
L 1159 3500 
L 1159 2956 
Q 1341 3275 1631 3429 
Q 1922 3584 2338 3584 
Q 2397 3584 2469 3576 
Q 2541 3569 2628 3553 
L 2631 2963 
z
" transform="scale(0.015625)"/>
     </defs>
     <use xlink:href="#DejaVuSans-54"/>
     <use xlink:href="#DejaVuSans-65" x="44.083984"/>
     <use xlink:href="#DejaVuSans-78" x="103.857422"/>
     <use xlink:href="#DejaVuSans-74" x="163.037109"/>
     <use xlink:href="#DejaVuSans-65" x="202.246094"/>
     <use xlink:href="#DejaVuSans-64" x="263.769531"/>
     <use xlink:href="#DejaVuSans-69" x="327.246094"/>
     <use xlink:href="#DejaVuSans-74" x="355.029297"/>
     <use xlink:href="#DejaVuSans-6f" x="394.238281"/>
     <use xlink:href="#DejaVuSans-72" x="455.419922"/>
    </g>
   </g>
   <g id="text_2">
    <!-- Texteditor -->
    <g transform="translate(50.921719 71.543125) scale(0.14 -0.14)">
     <use xlink:href="#DejaVuSans-54"/>
     <use xlink:href="#DejaVuSans-65" x="44.083984"/>
     <use xlink:href="#DejaVuSans-78" x="103.857422"/>
     <use xlink:href="#DejaVuSans-74" x="163.037109"/>
     <use xlink:href="#DejaVuSans-65" x="202.246094"/>
     <use xlink:href="#DejaVuSans-64" x="263.769531"/>
     <use xlink:href="#DejaVuSans-69" x="327.246094"/>
     <use xlink:href="#DejaVuSans-74" x="355.029297"/>
     <use xlink:href="#DejaVuSans-6f" x="394.238281"/>
     <use xlink:href="#DejaVuSans-72" x="455.419922"/>
    </g>
   </g>
   <g id="text_3">
    <!-- Texteditor -->
    <g transform="translate(50.921719 71.543125) scale(0.14 -0.14)">
     <use xlink:href="#DejaVuSans-54"/>
     <use xlink:href="#DejaVuSans-65" x="44.083984"/>
     <use xlink:href="#DejaVuSans-78" x="103.857422"/>
     <use xlink:href="#DejaVuSans-74" x="163.037109"/>
     <use xlink:href="#DejaVuSans-65" x="202.246094"/>
     <use xlink:href="#DejaVuSans-64" x="263.769531"/>
     <use xlink:href="#DejaVuSans-69" x="327.246094"/>
     <use xlink:href="#DejaVuSans-74" x="355.029297"/>
     <use xlink:href="#DejaVuSans-6f" x="394.238281"/>
     <use xlink:href="#DejaVuSans-72" x="455.419922"/>
    </g>
   </g>
   <g id="text_4">
    <!-- Texteditor -->
    <g transform="translate(50.921719 71.543125) scale(0.14 -0.14)">
     <use xlink:href="#DejaVuSans-54"/>
     <use xlink:href="#DejaVuSans-65" x="44.083984"/>
     <use xlink:href="#DejaVuSans-78" x="103.857422"/>
     <use xlink:href="#DejaVuSans-74" x="163.037109"/>
     <use xlink:href="#DejaVuSans-65" x="202.246094"/>
     <use xlink:href="#DejaVuSans-64" x="263.769531"/>
     <use xlink:href="#DejaVuSans-69" x="327.246094"/>
     <use xlink:href="#DejaVuSans-74" x="355.029297"/>
     <use xlink:href="#DejaVuSans-6f" x="394.238281"/>
     <use xlink:href="#DejaVuSans-72" x="455.419922"/>
    </g>
   </g>
   <g id="text_5">
    <!-- Skript -->
    <g transform="translate(155.172187 55.768437) scale(0.14 -0.14)">
     <defs>
      <path id="DejaVuSans-53" d="M 3425 4513 
L 3425 3897 
Q 3066 4069 2747 4153 
Q 2428 4238 2131 4238 
Q 1616 4238 1336 4038 
Q 1056 3838 1056 3469 
Q 1056 3159 1242 3001 
Q 1428 2844 1947 2747 
L 2328 2669 
Q 3034 2534 3370 2195 
Q 3706 1856 3706 1288 
Q 3706 609 3251 259 
Q 2797 -91 1919 -91 
Q 1588 -91 1214 -16 
Q 841 59 441 206 
L 441 856 
Q 825 641 1194 531 
Q 1563 422 1919 422 
Q 2459 422 2753 634 
Q 3047 847 3047 1241 
Q 3047 1584 2836 1778 
Q 2625 1972 2144 2069 
L 1759 2144 
Q 1053 2284 737 2584 
Q 422 2884 422 3419 
Q 422 4038 858 4394 
Q 1294 4750 2059 4750 
Q 2388 4750 2728 4690 
Q 3069 4631 3425 4513 
z
" transform="scale(0.015625)"/>
      <path id="DejaVuSans-6b" d="M 581 4863 
L 1159 4863 
L 1159 1991 
L 2875 3500 
L 3609 3500 
L 1753 1863 
L 3688 0 
L 2938 0 
L 1159 1709 
L 1159 0 
L 581 0 
L 581 4863 
z
" transform="scale(0.015625)"/>
      <path id="DejaVuSans-70" d="M 1159 525 
L 1159 -1331 
L 581 -1331 
L 581 3500 
L 1159 3500 
L 1159 2969 
Q 1341 3281 1617 3432 
Q 1894 3584 2278 3584 
Q 2916 3584 3314 3078 
Q 3713 2572 3713 1747 
Q 3713 922 3314 415 
Q 2916 -91 2278 -91 
Q 1894 -91 1617 61 
Q 1341 213 1159 525 
z
M 3116 1747 
Q 3116 2381 2855 2742 
Q 2594 3103 2138 3103 
Q 1681 3103 1420 2742 
Q 1159 2381 1159 1747 
Q 1159 1113 1420 752 
Q 1681 391 2138 391 
Q 2594 391 2855 752 
Q 3116 1113 3116 1747 
z
" transform="scale(0.015625)"/>
     </defs>
     <use xlink:href="#DejaVuSans-53"/>
     <use xlink:href="#DejaVuSans-6b" x="63.476562"/>
     <use xlink:href="#DejaVuSans-72" x="121.386719"/>
     <use xlink:href="#DejaVuSans-69" x="162.5"/>
     <use xlink:href="#DejaVuSans-70" x="190.283203"/>
     <use xlink:href="#DejaVuSans-74" x="253.759766"/>
    </g>
   </g>
   <g id="text_6">
    <!-- Skript -->
    <g transform="translate(155.172187 55.768437) scale(0.14 -0.14)">
     <use xlink:href="#DejaVuSans-53"/>
     <use xlink:href="#DejaVuSans-6b" x="63.476562"/>
     <use xlink:href="#DejaVuSans-72" x="121.386719"/>
     <use xlink:href="#DejaVuSans-69" x="162.5"/>
     <use xlink:href="#DejaVuSans-70" x="190.283203"/>
     <use xlink:href="#DejaVuSans-74" x="253.759766"/>
    </g>
   </g>
   <g id="text_7">
    <!-- Skript -->
    <g transform="translate(155.172187 55.768437) scale(0.14 -0.14)">
     <use xlink:href="#DejaVuSans-53"/>
     <use xlink:href="#DejaVuSans-6b" x="63.476562"/>
     <use xlink:href="#DejaVuSans-72" x="121.386719"/>
     <use xlink:href="#DejaVuSans-69" x="162.5"/>
     <use xlink:href="#DejaVuSans-70" x="190.283203"/>
     <use xlink:href="#DejaVuSans-74" x="253.759766"/>
    </g>
   </g>
   <g id="text_8">
    <!-- Skript -->
    <g transform="translate(155.172187 55.768437) scale(0.14 -0.14)">
     <use xlink:href="#DejaVuSans-53"/>
     <use xlink:href="#DejaVuSans-6b" x="63.476562"/>
     <use xlink:href="#DejaVuSans-72" x="121.386719"/>
     <use xlink:href="#DejaVuSans-69" x="162.5"/>
     <use xlink:href="#DejaVuSans-70" x="190.283203"/>
     <use xlink:href="#DejaVuSans-74" x="253.759766"/>
    </g>
   </g>
   <g id="text_9">
    <!-- Python -->
    <g transform="translate(241.41625 64.768437) scale(0.14 -0.14)">
     <defs>
      <path id="DejaVuSans-50" d="M 1259 4147 
L 1259 2394 
L 2053 2394 
Q 2494 2394 2734 2622 
Q 2975 2850 2975 3272 
Q 2975 3691 2734 3919 
Q 2494 4147 2053 4147 
L 1259 4147 
z
M 628 4666 
L 2053 4666 
Q 2838 4666 3239 4311 
Q 3641 3956 3641 3272 
Q 3641 2581 3239 2228 
Q 2838 1875 2053 1875 
L 1259 1875 
L 1259 0 
L 628 0 
L 628 4666 
z
" transform="scale(0.015625)"/>
      <path id="DejaVuSans-79" d="M 2059 -325 
Q 1816 -950 1584 -1140 
Q 1353 -1331 966 -1331 
L 506 -1331 
L 506 -850 
L 844 -850 
Q 1081 -850 1212 -737 
Q 1344 -625 1503 -206 
L 1606 56 
L 191 3500 
L 800 3500 
L 1894 763 
L 2988 3500 
L 3597 3500 
L 2059 -325 
z
" transform="scale(0.015625)"/>
      <path id="DejaVuSans-68" d="M 3513 2113 
L 3513 0 
L 2938 0 
L 2938 2094 
Q 2938 2591 2744 2837 
Q 2550 3084 2163 3084 
Q 1697 3084 1428 2787 
Q 1159 2491 1159 1978 
L 1159 0 
L 581 0 
L 581 4863 
L 1159 4863 
L 1159 2956 
Q 1366 3272 1645 3428 
Q 1925 3584 2291 3584 
Q 2894 3584 3203 3211 
Q 3513 2838 3513 2113 
z
" transform="scale(0.015625)"/>
      <path id="DejaVuSans-6e" d="M 3513 2113 
L 3513 0 
L 2938 0 
L 2938 2094 
Q 2938 2591 2744 2837 
Q 2550 3084 2163 3084 
Q 1697 3084 1428 2787 
Q 1159 2491 1159 1978 
L 1159 0 
L 581 0 
L 581 3500 
L 1159 3500 
L 1159 2956 
Q 1366 3272 1645 3428 
Q 1925 3584 2291 3584 
Q 2894 3584 3203 3211 
Q 3513 2838 3513 2113 
z
" transform="scale(0.015625)"/>
     </defs>
     <use xlink:href="#DejaVuSans-50"/>
     <use xlink:href="#DejaVuSans-79" x="60.302734"/>
     <use xlink:href="#DejaVuSans-74" x="119.482422"/>
     <use xlink:href="#DejaVuSans-68" x="158.691406"/>
     <use xlink:href="#DejaVuSans-6f" x="222.070312"/>
     <use xlink:href="#DejaVuSans-6e" x="283.251953"/>
    </g>
    <!-- Interpreter -->
    <g transform="translate(227.849375 78.317812) scale(0.14 -0.14)">
     <defs>
      <path id="DejaVuSans-49" d="M 628 4666 
L 1259 4666 
L 1259 0 
L 628 0 
L 628 4666 
z
" transform="scale(0.015625)"/>
     </defs>
     <use xlink:href="#DejaVuSans-49"/>
     <use xlink:href="#DejaVuSans-6e" x="29.492188"/>
     <use xlink:href="#DejaVuSans-74" x="92.871094"/>
     <use xlink:href="#DejaVuSans-65" x="132.080078"/>
     <use xlink:href="#DejaVuSans-72" x="193.603516"/>
     <use xlink:href="#DejaVuSans-70" x="234.716797"/>
     <use xlink:href="#DejaVuSans-72" x="298.193359"/>
     <use xlink:href="#DejaVuSans-65" x="337.056641"/>
     <use xlink:href="#DejaVuSans-74" x="398.580078"/>
     <use xlink:href="#DejaVuSans-65" x="437.789062"/>
     <use xlink:href="#DejaVuSans-72" x="499.3125"/>
    </g>
   </g>
   <g id="text_10">
    <!-- Python -->
    <g transform="translate(241.41625 64.768437) scale(0.14 -0.14)">
     <use xlink:href="#DejaVuSans-50"/>
     <use xlink:href="#DejaVuSans-79" x="60.302734"/>
     <use xlink:href="#DejaVuSans-74" x="119.482422"/>
     <use xlink:href="#DejaVuSans-68" x="158.691406"/>
     <use xlink:href="#DejaVuSans-6f" x="222.070312"/>
     <use xlink:href="#DejaVuSans-6e" x="283.251953"/>
    </g>
    <!-- Interpreter -->
    <g transform="translate(227.849375 78.317812) scale(0.14 -0.14)">
     <use xlink:href="#DejaVuSans-49"/>
     <use xlink:href="#DejaVuSans-6e" x="29.492188"/>
     <use xlink:href="#DejaVuSans-74" x="92.871094"/>
     <use xlink:href="#DejaVuSans-65" x="132.080078"/>
     <use xlink:href="#DejaVuSans-72" x="193.603516"/>
     <use xlink:href="#DejaVuSans-70" x="234.716797"/>
     <use xlink:href="#DejaVuSans-72" x="298.193359"/>
     <use xlink:href="#DejaVuSans-65" x="337.056641"/>
     <use xlink:href="#DejaVuSans-74" x="398.580078"/>
     <use xlink:href="#DejaVuSans-65" x="437.789062"/>
     <use xlink:href="#DejaVuSans-72" x="499.3125"/>
    </g>
   </g>
   <g id="text_11">
    <!-- Python -->
    <g transform="translate(241.41625 64.768437) scale(0.14 -0.14)">
     <use xlink:href="#DejaVuSans-50"/>
     <use xlink:href="#DejaVuSans-79" x="60.302734"/>
     <use xlink:href="#DejaVuSans-74" x="119.482422"/>
     <use xlink:href="#DejaVuSans-68" x="158.691406"/>
     <use xlink:href="#DejaVuSans-6f" x="222.070312"/>
     <use xlink:href="#DejaVuSans-6e" x="283.251953"/>
    </g>
    <!-- Interpreter -->
    <g transform="translate(227.849375 78.317812) scale(0.14 -0.14)">
     <use xlink:href="#DejaVuSans-49"/>
     <use xlink:href="#DejaVuSans-6e" x="29.492188"/>
     <use xlink:href="#DejaVuSans-74" x="92.871094"/>
     <use xlink:href="#DejaVuSans-65" x="132.080078"/>
     <use xlink:href="#DejaVuSans-72" x="193.603516"/>
     <use xlink:href="#DejaVuSans-70" x="234.716797"/>
     <use xlink:href="#DejaVuSans-72" x="298.193359"/>
     <use xlink:href="#DejaVuSans-65" x="337.056641"/>
     <use xlink:href="#DejaVuSans-74" x="398.580078"/>
     <use xlink:href="#DejaVuSans-65" x="437.789062"/>
     <use xlink:href="#DejaVuSans-72" x="499.3125"/>
    </g>
   </g>
   <g id="text_12">
    <!-- Python -->
    <g transform="translate(241.41625 64.768437) scale(0.14 -0.14)">
     <use xlink:href="#DejaVuSans-50"/>
     <use xlink:href="#DejaVuSans-79" x="60.302734"/>
     <use xlink:href="#DejaVuSans-74" x="119.482422"/>
     <use xlink:href="#DejaVuSans-68" x="158.691406"/>
     <use xlink:href="#DejaVuSans-6f" x="222.070312"/>
     <use xlink:href="#DejaVuSans-6e" x="283.251953"/>
    </g>
    <!-- Interpreter -->
    <g transform="translate(227.849375 78.317812) scale(0.14 -0.14)">
     <use xlink:href="#DejaVuSans-49"/>
     <use xlink:href="#DejaVuSans-6e" x="29.492188"/>
     <use xlink:href="#DejaVuSans-74" x="92.871094"/>
     <use xlink:href="#DejaVuSans-65" x="132.080078"/>
     <use xlink:href="#DejaVuSans-72" x="193.603516"/>
     <use xlink:href="#DejaVuSans-70" x="234.716797"/>
     <use xlink:href="#DejaVuSans-72" x="298.193359"/>
     <use xlink:href="#DejaVuSans-65" x="337.056641"/>
     <use xlink:href="#DejaVuSans-74" x="398.580078"/>
     <use xlink:href="#DejaVuSans-65" x="437.789062"/>
     <use xlink:href="#DejaVuSans-72" x="499.3125"/>
    </g>
   </g>
   <g id="text_13">
    <!-- Integrierte Entwicklungsumgebung IDE -->
    <g transform="translate(11.443247 22.081059) scale(0.14 -0.14)">
     <defs>
      <path id="DejaVuSans-67" d="M 2906 1791 
Q 2906 2416 2648 2759 
Q 2391 3103 1925 3103 
Q 1463 3103 1205 2759 
Q 947 2416 947 1791 
Q 947 1169 1205 825 
Q 1463 481 1925 481 
Q 2391 481 2648 825 
Q 2906 1169 2906 1791 
z
M 3481 434 
Q 3481 -459 3084 -895 
Q 2688 -1331 1869 -1331 
Q 1566 -1331 1297 -1286 
Q 1028 -1241 775 -1147 
L 775 -588 
Q 1028 -725 1275 -790 
Q 1522 -856 1778 -856 
Q 2344 -856 2625 -561 
Q 2906 -266 2906 331 
L 2906 616 
Q 2728 306 2450 153 
Q 2172 0 1784 0 
Q 1141 0 747 490 
Q 353 981 353 1791 
Q 353 2603 747 3093 
Q 1141 3584 1784 3584 
Q 2172 3584 2450 3431 
Q 2728 3278 2906 2969 
L 2906 3500 
L 3481 3500 
L 3481 434 
z
" transform="scale(0.015625)"/>
      <path id="DejaVuSans-20" transform="scale(0.015625)"/>
      <path id="DejaVuSans-45" d="M 628 4666 
L 3578 4666 
L 3578 4134 
L 1259 4134 
L 1259 2753 
L 3481 2753 
L 3481 2222 
L 1259 2222 
L 1259 531 
L 3634 531 
L 3634 0 
L 628 0 
L 628 4666 
z
" transform="scale(0.015625)"/>
      <path id="DejaVuSans-77" d="M 269 3500 
L 844 3500 
L 1563 769 
L 2278 3500 
L 2956 3500 
L 3675 769 
L 4391 3500 
L 4966 3500 
L 4050 0 
L 3372 0 
L 2619 2869 
L 1863 0 
L 1184 0 
L 269 3500 
z
" transform="scale(0.015625)"/>
      <path id="DejaVuSans-63" d="M 3122 3366 
L 3122 2828 
Q 2878 2963 2633 3030 
Q 2388 3097 2138 3097 
Q 1578 3097 1268 2742 
Q 959 2388 959 1747 
Q 959 1106 1268 751 
Q 1578 397 2138 397 
Q 2388 397 2633 464 
Q 2878 531 3122 666 
L 3122 134 
Q 2881 22 2623 -34 
Q 2366 -91 2075 -91 
Q 1284 -91 818 406 
Q 353 903 353 1747 
Q 353 2603 823 3093 
Q 1294 3584 2113 3584 
Q 2378 3584 2631 3529 
Q 2884 3475 3122 3366 
z
" transform="scale(0.015625)"/>
      <path id="DejaVuSans-6c" d="M 603 4863 
L 1178 4863 
L 1178 0 
L 603 0 
L 603 4863 
z
" transform="scale(0.015625)"/>
      <path id="DejaVuSans-75" d="M 544 1381 
L 544 3500 
L 1119 3500 
L 1119 1403 
Q 1119 906 1312 657 
Q 1506 409 1894 409 
Q 2359 409 2629 706 
Q 2900 1003 2900 1516 
L 2900 3500 
L 3475 3500 
L 3475 0 
L 2900 0 
L 2900 538 
Q 2691 219 2414 64 
Q 2138 -91 1772 -91 
Q 1169 -91 856 284 
Q 544 659 544 1381 
z
M 1991 3584 
L 1991 3584 
z
" transform="scale(0.015625)"/>
      <path id="DejaVuSans-73" d="M 2834 3397 
L 2834 2853 
Q 2591 2978 2328 3040 
Q 2066 3103 1784 3103 
Q 1356 3103 1142 2972 
Q 928 2841 928 2578 
Q 928 2378 1081 2264 
Q 1234 2150 1697 2047 
L 1894 2003 
Q 2506 1872 2764 1633 
Q 3022 1394 3022 966 
Q 3022 478 2636 193 
Q 2250 -91 1575 -91 
Q 1294 -91 989 -36 
Q 684 19 347 128 
L 347 722 
Q 666 556 975 473 
Q 1284 391 1588 391 
Q 1994 391 2212 530 
Q 2431 669 2431 922 
Q 2431 1156 2273 1281 
Q 2116 1406 1581 1522 
L 1381 1569 
Q 847 1681 609 1914 
Q 372 2147 372 2553 
Q 372 3047 722 3315 
Q 1072 3584 1716 3584 
Q 2034 3584 2315 3537 
Q 2597 3491 2834 3397 
z
" transform="scale(0.015625)"/>
      <path id="DejaVuSans-6d" d="M 3328 2828 
Q 3544 3216 3844 3400 
Q 4144 3584 4550 3584 
Q 5097 3584 5394 3201 
Q 5691 2819 5691 2113 
L 5691 0 
L 5113 0 
L 5113 2094 
Q 5113 2597 4934 2840 
Q 4756 3084 4391 3084 
Q 3944 3084 3684 2787 
Q 3425 2491 3425 1978 
L 3425 0 
L 2847 0 
L 2847 2094 
Q 2847 2600 2669 2842 
Q 2491 3084 2119 3084 
Q 1678 3084 1418 2786 
Q 1159 2488 1159 1978 
L 1159 0 
L 581 0 
L 581 3500 
L 1159 3500 
L 1159 2956 
Q 1356 3278 1631 3431 
Q 1906 3584 2284 3584 
Q 2666 3584 2933 3390 
Q 3200 3197 3328 2828 
z
" transform="scale(0.015625)"/>
      <path id="DejaVuSans-62" d="M 3116 1747 
Q 3116 2381 2855 2742 
Q 2594 3103 2138 3103 
Q 1681 3103 1420 2742 
Q 1159 2381 1159 1747 
Q 1159 1113 1420 752 
Q 1681 391 2138 391 
Q 2594 391 2855 752 
Q 3116 1113 3116 1747 
z
M 1159 2969 
Q 1341 3281 1617 3432 
Q 1894 3584 2278 3584 
Q 2916 3584 3314 3078 
Q 3713 2572 3713 1747 
Q 3713 922 3314 415 
Q 2916 -91 2278 -91 
Q 1894 -91 1617 61 
Q 1341 213 1159 525 
L 1159 0 
L 581 0 
L 581 4863 
L 1159 4863 
L 1159 2969 
z
" transform="scale(0.015625)"/>
      <path id="DejaVuSans-44" d="M 1259 4147 
L 1259 519 
L 2022 519 
Q 2988 519 3436 956 
Q 3884 1394 3884 2338 
Q 3884 3275 3436 3711 
Q 2988 4147 2022 4147 
L 1259 4147 
z
M 628 4666 
L 1925 4666 
Q 3281 4666 3915 4102 
Q 4550 3538 4550 2338 
Q 4550 1131 3912 565 
Q 3275 0 1925 0 
L 628 0 
L 628 4666 
z
" transform="scale(0.015625)"/>
     </defs>
     <use xlink:href="#DejaVuSans-49"/>
     <use xlink:href="#DejaVuSans-6e" x="29.492188"/>
     <use xlink:href="#DejaVuSans-74" x="92.871094"/>
     <use xlink:href="#DejaVuSans-65" x="132.080078"/>
     <use xlink:href="#DejaVuSans-67" x="193.603516"/>
     <use xlink:href="#DejaVuSans-72" x="257.080078"/>
     <use xlink:href="#DejaVuSans-69" x="298.193359"/>
     <use xlink:href="#DejaVuSans-65" x="325.976562"/>
     <use xlink:href="#DejaVuSans-72" x="387.5"/>
     <use xlink:href="#DejaVuSans-74" x="428.613281"/>
     <use xlink:href="#DejaVuSans-65" x="467.822266"/>
     <use xlink:href="#DejaVuSans-20" x="529.345703"/>
     <use xlink:href="#DejaVuSans-45" x="561.132812"/>
     <use xlink:href="#DejaVuSans-6e" x="624.316406"/>
     <use xlink:href="#DejaVuSans-74" x="687.695312"/>
     <use xlink:href="#DejaVuSans-77" x="726.904297"/>
     <use xlink:href="#DejaVuSans-69" x="808.691406"/>
     <use xlink:href="#DejaVuSans-63" x="836.474609"/>
     <use xlink:href="#DejaVuSans-6b" x="891.455078"/>
     <use xlink:href="#DejaVuSans-6c" x="949.365234"/>
     <use xlink:href="#DejaVuSans-75" x="977.148438"/>
     <use xlink:href="#DejaVuSans-6e" x="1040.527344"/>
     <use xlink:href="#DejaVuSans-67" x="1103.90625"/>
     <use xlink:href="#DejaVuSans-73" x="1167.382812"/>
     <use xlink:href="#DejaVuSans-75" x="1219.482422"/>
     <use xlink:href="#DejaVuSans-6d" x="1282.861328"/>
     <use xlink:href="#DejaVuSans-67" x="1380.273438"/>
     <use xlink:href="#DejaVuSans-65" x="1443.75"/>
     <use xlink:href="#DejaVuSans-62" x="1505.273438"/>
     <use xlink:href="#DejaVuSans-75" x="1568.75"/>
     <use xlink:href="#DejaVuSans-6e" x="1632.128906"/>
     <use xlink:href="#DejaVuSans-67" x="1695.507812"/>
     <use xlink:href="#DejaVuSans-20" x="1758.984375"/>
     <use xlink:href="#DejaVuSans-49" x="1790.771484"/>
     <use xlink:href="#DejaVuSans-44" x="1820.263672"/>
     <use xlink:href="#DejaVuSans-45" x="1897.265625"/>
    </g>
   </g>
   <g id="text_14">
    <!-- Maschinencode -->
    <g transform="translate(380.611406 59.368437) scale(0.14 -0.14)">
     <defs>
      <path id="DejaVuSans-4d" d="M 628 4666 
L 1569 4666 
L 2759 1491 
L 3956 4666 
L 4897 4666 
L 4897 0 
L 4281 0 
L 4281 4097 
L 3078 897 
L 2444 897 
L 1241 4097 
L 1241 0 
L 628 0 
L 628 4666 
z
" transform="scale(0.015625)"/>
      <path id="DejaVuSans-61" d="M 2194 1759 
Q 1497 1759 1228 1600 
Q 959 1441 959 1056 
Q 959 750 1161 570 
Q 1363 391 1709 391 
Q 2188 391 2477 730 
Q 2766 1069 2766 1631 
L 2766 1759 
L 2194 1759 
z
M 3341 1997 
L 3341 0 
L 2766 0 
L 2766 531 
Q 2569 213 2275 61 
Q 1981 -91 1556 -91 
Q 1019 -91 701 211 
Q 384 513 384 1019 
Q 384 1609 779 1909 
Q 1175 2209 1959 2209 
L 2766 2209 
L 2766 2266 
Q 2766 2663 2505 2880 
Q 2244 3097 1772 3097 
Q 1472 3097 1187 3025 
Q 903 2953 641 2809 
L 641 3341 
Q 956 3463 1253 3523 
Q 1550 3584 1831 3584 
Q 2591 3584 2966 3190 
Q 3341 2797 3341 1997 
z
" transform="scale(0.015625)"/>
     </defs>
     <use xlink:href="#DejaVuSans-4d"/>
     <use xlink:href="#DejaVuSans-61" x="86.279297"/>
     <use xlink:href="#DejaVuSans-73" x="147.558594"/>
     <use xlink:href="#DejaVuSans-63" x="199.658203"/>
     <use xlink:href="#DejaVuSans-68" x="254.638672"/>
     <use xlink:href="#DejaVuSans-69" x="318.017578"/>
     <use xlink:href="#DejaVuSans-6e" x="345.800781"/>
     <use xlink:href="#DejaVuSans-65" x="409.179688"/>
     <use xlink:href="#DejaVuSans-6e" x="470.703125"/>
     <use xlink:href="#DejaVuSans-63" x="534.082031"/>
     <use xlink:href="#DejaVuSans-6f" x="589.0625"/>
     <use xlink:href="#DejaVuSans-64" x="650.244141"/>
     <use xlink:href="#DejaVuSans-65" x="713.720703"/>
    </g>
   </g>
   <g id="text_15">
    <!-- ausführender -->
    <g transform="translate(508.892187 64.768437) scale(0.14 -0.14)">
     <defs>
      <path id="DejaVuSans-66" d="M 2375 4863 
L 2375 4384 
L 1825 4384 
Q 1516 4384 1395 4259 
Q 1275 4134 1275 3809 
L 1275 3500 
L 2222 3500 
L 2222 3053 
L 1275 3053 
L 1275 0 
L 697 0 
L 697 3053 
L 147 3053 
L 147 3500 
L 697 3500 
L 697 3744 
Q 697 4328 969 4595 
Q 1241 4863 1831 4863 
L 2375 4863 
z
" transform="scale(0.015625)"/>
      <path id="DejaVuSans-fc" d="M 544 1381 
L 544 3500 
L 1119 3500 
L 1119 1403 
Q 1119 906 1312 657 
Q 1506 409 1894 409 
Q 2359 409 2629 706 
Q 2900 1003 2900 1516 
L 2900 3500 
L 3475 3500 
L 3475 0 
L 2900 0 
L 2900 538 
Q 2691 219 2414 64 
Q 2138 -91 1772 -91 
Q 1169 -91 856 284 
Q 544 659 544 1381 
z
M 1991 3584 
L 1991 3584 
z
M 2278 4850 
L 2912 4850 
L 2912 4219 
L 2278 4219 
L 2278 4850 
z
M 1056 4850 
L 1690 4850 
L 1690 4219 
L 1056 4219 
L 1056 4850 
z
" transform="scale(0.015625)"/>
     </defs>
     <use xlink:href="#DejaVuSans-61"/>
     <use xlink:href="#DejaVuSans-75" x="61.279297"/>
     <use xlink:href="#DejaVuSans-73" x="124.658203"/>
     <use xlink:href="#DejaVuSans-66" x="176.757812"/>
     <use xlink:href="#DejaVuSans-fc" x="211.962891"/>
     <use xlink:href="#DejaVuSans-68" x="275.341797"/>
     <use xlink:href="#DejaVuSans-72" x="338.720703"/>
     <use xlink:href="#DejaVuSans-65" x="377.583984"/>
     <use xlink:href="#DejaVuSans-6e" x="439.107422"/>
     <use xlink:href="#DejaVuSans-64" x="502.486328"/>
     <use xlink:href="#DejaVuSans-65" x="565.962891"/>
     <use xlink:href="#DejaVuSans-72" x="627.486328"/>
    </g>
    <!-- Computer -->
    <g transform="translate(520.895 78.317812) scale(0.14 -0.14)">
     <defs>
      <path id="DejaVuSans-43" d="M 4122 4306 
L 4122 3641 
Q 3803 3938 3442 4084 
Q 3081 4231 2675 4231 
Q 1875 4231 1450 3742 
Q 1025 3253 1025 2328 
Q 1025 1406 1450 917 
Q 1875 428 2675 428 
Q 3081 428 3442 575 
Q 3803 722 4122 1019 
L 4122 359 
Q 3791 134 3420 21 
Q 3050 -91 2638 -91 
Q 1578 -91 968 557 
Q 359 1206 359 2328 
Q 359 3453 968 4101 
Q 1578 4750 2638 4750 
Q 3056 4750 3426 4639 
Q 3797 4528 4122 4306 
z
" transform="scale(0.015625)"/>
     </defs>
     <use xlink:href="#DejaVuSans-43"/>
     <use xlink:href="#DejaVuSans-6f" x="69.824219"/>
     <use xlink:href="#DejaVuSans-6d" x="131.005859"/>
     <use xlink:href="#DejaVuSans-70" x="228.417969"/>
     <use xlink:href="#DejaVuSans-75" x="291.894531"/>
     <use xlink:href="#DejaVuSans-74" x="355.273438"/>
     <use xlink:href="#DejaVuSans-65" x="394.482422"/>
     <use xlink:href="#DejaVuSans-72" x="456.005859"/>
    </g>
   </g>
   <g id="text_16">
    <!-- Ergebnis -->
    <g transform="translate(626.306719 55.768437) scale(0.14 -0.14)">
     <use xlink:href="#DejaVuSans-45"/>
     <use xlink:href="#DejaVuSans-72" x="63.183594"/>
     <use xlink:href="#DejaVuSans-67" x="102.546875"/>
     <use xlink:href="#DejaVuSans-65" x="166.023438"/>
     <use xlink:href="#DejaVuSans-62" x="227.546875"/>
     <use xlink:href="#DejaVuSans-6e" x="291.023438"/>
     <use xlink:href="#DejaVuSans-69" x="354.402344"/>
     <use xlink:href="#DejaVuSans-73" x="382.185547"/>
    </g>
   </g>
   <g id="text_17">
    <!-- Ausgabe -->
    <g transform="translate(725.351562 71.543125) scale(0.14 -0.14)">
     <defs>
      <path id="DejaVuSans-41" d="M 2188 4044 
L 1331 1722 
L 3047 1722 
L 2188 4044 
z
M 1831 4666 
L 2547 4666 
L 4325 0 
L 3669 0 
L 3244 1197 
L 1141 1197 
L 716 0 
L 50 0 
L 1831 4666 
z
" transform="scale(0.015625)"/>
     </defs>
     <use xlink:href="#DejaVuSans-41"/>
     <use xlink:href="#DejaVuSans-75" x="68.408203"/>
     <use xlink:href="#DejaVuSans-73" x="131.787109"/>
     <use xlink:href="#DejaVuSans-67" x="183.886719"/>
     <use xlink:href="#DejaVuSans-61" x="247.363281"/>
     <use xlink:href="#DejaVuSans-62" x="308.642578"/>
     <use xlink:href="#DejaVuSans-65" x="372.119141"/>
    </g>
   </g>
   <g id="text_18">
    <!-- Konsole -->
    <g transform="translate(58.538594 179.543125) scale(0.14 -0.14)">
     <defs>
      <path id="DejaVuSans-4b" d="M 628 4666 
L 1259 4666 
L 1259 2694 
L 3353 4666 
L 4166 4666 
L 1850 2491 
L 4331 0 
L 3500 0 
L 1259 2247 
L 1259 0 
L 628 0 
L 628 4666 
z
" transform="scale(0.015625)"/>
     </defs>
     <use xlink:href="#DejaVuSans-4b"/>
     <use xlink:href="#DejaVuSans-6f" x="60.576172"/>
     <use xlink:href="#DejaVuSans-6e" x="121.757812"/>
     <use xlink:href="#DejaVuSans-73" x="185.136719"/>
     <use xlink:href="#DejaVuSans-6f" x="237.236328"/>
     <use xlink:href="#DejaVuSans-6c" x="298.417969"/>
     <use xlink:href="#DejaVuSans-65" x="326.201172"/>
    </g>
   </g>
   <g id="text_19">
    <!-- Eingaben -->
    <g transform="translate(169.955 195.317812) scale(0.14 -0.14)">
     <use xlink:href="#DejaVuSans-45"/>
     <use xlink:href="#DejaVuSans-69" x="63.183594"/>
     <use xlink:href="#DejaVuSans-6e" x="90.966797"/>
     <use xlink:href="#DejaVuSans-67" x="154.345703"/>
     <use xlink:href="#DejaVuSans-61" x="217.822266"/>
     <use xlink:href="#DejaVuSans-62" x="279.101562"/>
     <use xlink:href="#DejaVuSans-65" x="342.578125"/>
     <use xlink:href="#DejaVuSans-6e" x="404.101562"/>
    </g>
   </g>
  </g>
 </g>
 <defs>
  <clipPath id="p73536b3c56">
   <rect x="0" y="-0" width="814.3875" height="216.36"/>
  </clipPath>
 </defs>
</svg>
